<svg xmlns="http://www.w3.org/2000/svg" viewBox="0 0 60 100" fill="none">
  <!-- Outer flame -->
  <path d="M30 95C12 95 0 78 0 62C0 38 18 22 24 10C26 6 28 3 30 0C32 3 34 6 36 10C42 22 60 38 60 62C60 78 48 95 30 95Z" fill="url(#fg)" />
  <!-- Inner flame -->
  <path d="M30 95C20 95 14 83 14 74C14 58 24 48 28 40C29 37 29.5 34 30 30C30.5 34 31 37 32 40C36 48 46 58 46 74C46 83 40 95 30 95Z" fill="url(#ifg)" />
  <!-- Highlight -->
  <path d="M30 95C24 95 20 86 20 80C20 70 26 64 29 58C29.5 56 30 53 30 50C30 53 30.5 56 31 58C34 64 40 70 40 80C40 86 36 95 30 95Z" fill="#FFF5E0" opacity="0.6" />
  <!-- BK monogram -->
  <text x="30" y="82" font-family="Georgia, serif" font-size="22" font-weight="bold" font-style="italic" fill="#1a1a1a" text-anchor="middle" opacity="0.7">BK</text>
  <defs>
    <linearGradient id="fg" x1="30" y1="0" x2="30" y2="95" gradientUnits="userSpaceOnUse">
      <stop offset="0%" stop-color="#FFD700" />
      <stop offset="40%" stop-color="#FF8C00" />
      <stop offset="100%" stop-color="#DC3545" />
    </linearGradient>
    <linearGradient id="ifg" x1="30" y1="30" x2="30" y2="95" gradientUnits="userSpaceOnUse">
      <stop offset="0%" stop-color="#FFE066" />
      <stop offset="50%" stop-color="#FFB347" />
      <stop offset="100%" stop-color="#FF6B35" />
    </linearGradient>
  </defs>
</svg>
